<svg version="1.1" id="Layer_1" xmlns="http://www.w3.org/2000/svg" xmlns:xlink="http://www.w3.org/1999/xlink" viewBox="-51.2 -51.2 614.40 614.40" xml:space="preserve" fill="#000000" transform="rotate(0)matrix(1, 0, 0, 1, 0, 0)"><g id="SVGRepo_bgCarrier" stroke-width="0" transform="translate(0,0), scale(1)"></g><g id="SVGRepo_tracerCarrier" stroke-linecap="round" stroke-linejoin="round" stroke="#CCCCCC" stroke-width="7.168028"></g><g id="SVGRepo_iconCarrier"> <path style="fill:#7f5af0;" d="M12.8,499.2V64h153.6v435.2H12.8z M89.6,371.2c-14.114,0-25.6,11.486-25.6,25.6 s11.486,25.6,25.6,25.6s25.6-11.486,25.6-25.6S103.714,371.2,89.6,371.2z"></path> <rect x="166.4" y="12.8" style="fill:#2cb67d;" width="153.6" height="102.4"></rect> <path style="fill:#2cb67d;" d="M166.4,499.2v-384H320v384H166.4z M243.2,345.6c-14.114,0-25.6,11.486-25.6,25.6 s11.486,25.6,25.6,25.6c14.114,0,25.6-11.486,25.6-25.6S257.314,345.6,243.2,345.6z"></path> <g> <rect x="351.628" y="40.169" transform="matrix(0.9848 -0.1736 0.1736 0.9848 -7.7174 68.9028)" style="fill:#94a1b2;" width="76.799" height="76.799"></rect> <rect x="418.411" y="418.352" transform="matrix(0.9848 -0.1736 0.1736 0.9848 -72.3563 86.239)" style="fill:#94a1b2;" width="76.799" height="76.79"></rect> </g> <circle style="fill:#94a1b2;" cx="89.6" cy="396.8" r="25.6"></circle> <rect x="385.017" y="114.066" transform="matrix(0.9848 -0.1736 0.1736 0.9848 -40.0378 77.5705)" style="fill:#94a1b2;" width="76.799" height="307.195"></rect> <circle style="fill:#94a1b2;" cx="243.2" cy="371.2" r="25.6"></circle> <g> <path style="fill:#010101;" d="M89.6,358.4c-21.205,0-38.4,17.195-38.4,38.4c0,21.205,17.195,38.4,38.4,38.4s38.4-17.195,38.4-38.4 C128,375.595,110.805,358.4,89.6,358.4z M89.6,409.6c-7.057,0-12.8-5.743-12.8-12.8S82.543,384,89.6,384 c7.057,0,12.8,5.743,12.8,12.8S96.657,409.6,89.6,409.6z"></path> <path style="fill:#010101;" d="M243.2,409.6c21.205,0,38.4-17.195,38.4-38.4c0-21.205-17.195-38.4-38.4-38.4 s-38.4,17.195-38.4,38.4C204.8,392.405,221.995,409.6,243.2,409.6z M243.2,358.4c7.057,0,12.8,5.743,12.8,12.8 s-5.743,12.8-12.8,12.8s-12.8-5.743-12.8-12.8S236.143,358.4,243.2,358.4z"></path> <path style="fill:#010101;" d="M307.2,0h-128c-14.14,0-25.6,11.46-25.6,25.6v25.6h-128C11.46,51.2,0,62.66,0,76.8v409.6 C0,500.54,11.46,512,25.6,512h128c4.77,0,8.977-1.655,12.8-3.925c3.823,2.27,8.038,3.925,12.8,3.925h128 c14.14,0,25.6-11.46,25.6-25.6V25.6C332.8,11.46,321.34,0,307.2,0z M25.6,486.4V76.8h128v409.6H25.6z M307.2,486.4h-128V128h128 V486.4z M307.2,102.4h-128V25.6h128V102.4z"></path> <path style="fill:#010101;" d="M436.036,44.467c-2.458-13.918-15.735-23.219-29.662-20.762l-50.415,8.892 c-13.918,2.458-23.219,15.735-20.762,29.662l75.571,428.587c2.458,13.926,15.735,23.219,29.653,20.762l50.423-8.892 c13.926-2.458,23.219-15.736,20.762-29.653L436.036,44.467z M360.405,57.805l50.423-8.892l8.892,50.423l-50.423,8.892 L360.405,57.805z M373.734,133.444l50.423-8.892l48.896,277.325l-50.423,8.892L373.734,133.444z M435.977,486.392l-8.892-50.423 l50.423-8.892L486.4,477.5L435.977,486.392z"></path> <rect x="51.2" y="153.6" style="fill:#010101;" width="76.8" height="25.6"></rect> </g> </g></svg>